<svg width="15" xmlns="http://www.w3.org/2000/svg" height="15.029" fill="none"><g data-testid="Bpm" style="fill: rgb(0, 0, 0);"><path d="M6.688 13.77 1.395 8.818a4.427 4.427 0 0 1-.349-.364h2.549a1.64 1.64 0 0 0 1.514-1.013l.308-.739 1.444 3.214a.696.696 0 0 0 .627.414.71.71 0 0 0 .645-.391l1.242-2.492.05.1c.278.558.846.91 1.468.91h3.061a4.427 4.427 0 0 1-.349.364L8.312 13.77a1.191 1.191 0 0 1-1.624 0Zm8.069-6.725H10.89a.239.239 0 0 1-.211-.129l-.68-1.359a.703.703 0 0 0-1.26 0l-1.213 2.43-1.494-3.343a.698.698 0 0 0-.65-.414.708.708 0 0 0-.639.434l-.931 2.24a.235.235 0 0 1-.217.144H.469a.743.743 0 0 0-.214.032A4.4 4.4 0 0 1 0 5.604v-.171a4.192 4.192 0 0 1 3.498-4.138 4.18 4.18 0 0 1 3.65 1.171l.352.352.352-.352a4.18 4.18 0 0 1 3.65-1.171A4.192 4.192 0 0 1 15 5.433v.171c0 .496-.082.983-.243 1.441Z" style="fill: rgb(50, 189, 189); fill-opacity: 1;" class="fills" data-testid="svg-path"/></g></svg>