<svg width="35" xmlns="http://www.w3.org/2000/svg" height="35" id="screenshot-32f4d6ee-50e0-80ad-8004-d524299ecea9" fill="none" version="1.1"><g data-testid="cycle-cycling-svgrepo-com" xml:space="preserve" style="fill:rgb(0, 0, 0)"><g id="shape-32f4d6ee-50e0-80ad-8004-d52429a09ed6" data-testid="svg-path"><path d="M28.438 16.406c-.657 0-1.204.11-1.75.219L24.5 8.75h4.594c.219 0 .437.219.437.547 0 .328-.218.547-.547.547h-.546c-.657 0-1.094.437-1.094 1.094 0 .656.437 1.093 1.094 1.093h.546a2.708 2.708 0 0 0 2.735-2.734 2.708 2.708 0 0 0-2.735-2.734h-6.015c-.328 0-.656.109-.875.437-.219.219-.219.656-.219.984l1.203 4.047H11.922c-.109-.875.219-1.859.875-2.515.328-.328.437-.766.219-1.203-.11-.438-.547-.657-.985-.657H7.656c-.656 0-1.093.438-1.093 1.094 0 .656.437 1.094 1.093 1.094h2.407c-.329.984-.438 1.969-.219 2.953l-1.641 3.828c-.547-.109-1.094-.219-1.64-.219-3.61 0-6.563 2.953-6.563 6.563 0 3.609 2.953 6.562 6.563 6.562 2.406 0 4.484-1.312 5.687-3.281H7.656c-.547 0-1.093-.547-1.093-1.094s.546-1.093 1.093-1.093h8.75c.11 0 .328 0 .438-.11l.328-.328 6.672-8.531.765 2.515c-1.64 1.204-2.734 3.172-2.734 5.36 0 3.609 2.953 6.562 6.563 6.562 3.609 0 6.562-2.953 6.562-6.562 0-3.61-2.953-6.563-6.562-6.563Zm-15.422 5.469c-.328-1.859-1.313-3.391-2.844-4.375l.875-1.969 3.5 6.344h-1.531Zm3.5-.875-3.61-6.781h8.969L16.516 21Zm11.922 2.734a.747.747 0 0 1-.766-.765c0-.438.328-.766.766-.766.437 0 .765.328.765.766a.747.747 0 0 1-.765.765Z" style="fill: rgb(18, 23, 26); fill-opacity: 1;" class="fills" id="fills-32f4d6ee-50e0-80ad-8004-d52429a09ed6"/></g></g></svg>