<svg width="20" xmlns="http://www.w3.org/2000/svg" height="22.609" fill="none"><g data-testid="Delete" style="fill: rgb(0, 0, 0);"><path d="m7.612 2.279-.849 1.254h6.474l-.849-1.254a.363.363 0 0 0-.299-.159H7.906a.34.34 0 0 0-.294.159Zm6.562-1.175 1.638 2.429h3.117c.593 0 1.071.472 1.071 1.059 0 .588-.478 1.06-1.071 1.06h-.358v13.424c0 1.952-1.598 3.533-3.571 3.533H5c-1.973 0-3.571-1.581-3.571-3.533V5.652h-.358A1.063 1.063 0 0 1 0 4.592c0-.587.478-1.059 1.071-1.059h3.117L5.826 1.1A2.515 2.515 0 0 1 7.906 0h4.183c.835 0 1.616.415 2.085 1.104ZM3.571 5.652v13.424A1.42 1.42 0 0 0 5 20.489h10a1.42 1.42 0 0 0 1.429-1.413V5.652H3.571Zm3.572 2.826v9.185a.713.713 0 0 1-.714.707.713.713 0 0 1-.715-.707V8.478c0-.388.322-.706.715-.706.392 0 .714.318.714.706Zm3.571 0v9.185a.712.712 0 0 1-.714.707.712.712 0 0 1-.714-.707V8.478c0-.388.321-.706.714-.706.393 0 .714.318.714.706Zm3.572 0v9.185a.713.713 0 0 1-.715.707.713.713 0 0 1-.714-.707V8.478c0-.388.322-.706.714-.706.393 0 .715.318.715.706Z" style="fill: rgb(229, 59, 37); fill-opacity: 1;" class="fills" data-testid="svg-path"/></g></svg>