<svg width="15" xmlns="http://www.w3.org/2000/svg" height="13.382" fill="none"><g data-testid="Distance" style="fill: rgb(0, 0, 0);"><path d="M6.667.836H4.719c-.706 0-1.336.447-1.571 1.114L.081 10.643a1.426 1.426 0 0 0 1.341 1.903h5.245v-1.673a.834.834 0 1 1 1.666 0v1.673h5.245a1.424 1.424 0 0 0 1.341-1.903L11.852 1.95A1.67 1.67 0 0 0 10.281.836H8.333v1.673a.834.834 0 1 1-1.666 0V.836Zm1.666 5.019v1.673a.834.834 0 1 1-1.666 0V5.855a.834.834 0 1 1 1.666 0Z" style="fill: rgb(50, 189, 189); fill-opacity: 1;" class="fills" data-testid="svg-path"/></g></svg>