<svg width="35" xmlns="http://www.w3.org/2000/svg" height="35" id="screenshot-32f4d6ee-50e0-80ad-8004-d52489a8c4b4" fill="none" version="1.1"><g xml:space="preserve" data-testid="sports-shoes-2-svgrepo-com" style="fill:rgb(0, 0, 0)"><g id="shape-32f4d6ee-50e0-80ad-8004-d52489a9aed7" data-testid="svg-path"><g class="fills" id="fills-32f4d6ee-50e0-80ad-8004-d52489a9aed7"><path d="M18.057 28.499 1.001 14.022 0 15.202 17.058 29.68l.002.002a10.78 10.78 0 0 0 6.935 2.53h10.932v-1.547H23.995c-2.168 0-4.28-.77-5.938-2.166Z" class="st0" style="fill: rgb(18, 23, 26); fill-opacity: 1;"/></g></g><g id="shape-32f4d6ee-50e0-80ad-8004-d52489aa0fb8" data-testid="svg-path"><g class="fills" id="fills-32f4d6ee-50e0-80ad-8004-d52489aa0fb8"><path d="M23.995 29.118h8.224c3.868 0 3.288-3.869.774-4.449-1.697-.391-3.875-1.292-3.875-1.292a3.285 3.285 0 0 1-1.944-1.736l-.252-.535-3.158.954a.652.652 0 1 1-.378-1.249l2.975-.9-.865-1.847-2.951.893a.653.653 0 0 1-.379-1.25l2.771-.838-.86-1.848-2.751.832a.654.654 0 0 1-.379-1.249l2.578-.78c-.37-.804-.638-1.4-.709-1.585-.31-.807-.991-3.044-2.546-1.801-2.556 2.047-7.219 1.447-8.423-.79-.902-1.676-.386-3.481 0-4.899.31-1.134-1.29-2.902-2.449-1.354-.821 1.093-7.737 9.283-7.737 9.283l17.392 14.637a7.679 7.679 0 0 0 4.942 1.803Z" class="st0" style="fill: rgb(18, 23, 26); fill-opacity: 1;"/></g></g></g></svg>