<svg width="8.305" xmlns="http://www.w3.org/2000/svg" height="11.197" viewBox="806.152 358.8 8.305 11.197" fill="none"><path d="M809.718 359.035a.853.853 0 0 1 1.175 0l3.321 3.198c.239.23.309.572.179.872a.832.832 0 0 1-.768.495h-6.641a.834.834 0 0 1-.768-.495.779.779 0 0 1 .179-.872l3.323-3.198Zm0 10.728-3.32-3.199a.774.774 0 0 1-.179-.872.83.83 0 0 1 .768-.495h6.638c.335 0 .638.195.768.495s.057.642-.179.872l-3.321 3.199a.855.855 0 0 1-1.175 0Z" style="fill: rgb(255, 255, 255); fill-opacity: 1;" class="fills" data-testid="svg-path"/></svg>