<svg width="81" xmlns="http://www.w3.org/2000/svg" height="81" fill="none"><g data-testid="mountain-running-silhouette-svgrepo-com" xml:space="preserve" style="fill: rgb(0, 0, 0);"><path d="M76.364 49.42c-.878-1.647-2.294-1.642-3.163.01l-1.075 2.042c-.87 1.651-3.086 2.989-4.951 2.989h-2.532c-1.866 0-4.481 1.035-5.841 2.312l-4.89 4.586-.186-15.93c.124-2.788-1.602-3.724-1.602-3.724l-8.547-3.925 5.09-10.225 5.823 3.463s2.339 1.469 4.04-1.409l5.597-9.537a2.62 2.62 0 0 0-3.03-3.641 2.587 2.587 0 0 0-1.474 1.015L54.972 25.3l-9.489-5.608a3.278 3.278 0 0 0-2.458-.334l-11.842 3.041c-.76.195-1.354.72-1.665 1.382l-5.759 11.513a2.535 2.535 0 0 0 2.731 3.879 2.512 2.512 0 0 0 1.662-1.385l5.338-10.71 4.374-1.103-11.519 22.661-9.973 2.53a3.588 3.588 0 0 0-.781.277 3.218 3.218 0 0 0-1.4 4.354 3.258 3.258 0 0 0 3.764 1.659l11.8-3.051c2.811-.619 3.524-2.184 3.524-2.184l4.622-8.886 9.414 5.392.09 13.032c.001.164.039.327.063.49l-1.753-.633c-1.755-.633-4.621-.696-6.403-.144L35.361 62.7c-1.782.554-4.654.505-6.416-.108L26.04 61.58c-1.762-.613-4.358-.149-5.8 1.034l-3.628 2.98c-1.443 1.182-4.031 1.62-5.782.98l-4.657-1.708c-1.75-.644-3.871.175-4.736 1.828l-1.09 2.084c-.866 1.653-.054 2.992 1.811 2.992h73.46c1.865 0 3.674-1.481 4.04-3.311l1.21-6.043c.364-1.829-.049-4.646-.928-6.291l-3.576-6.705Z" style="fill: rgb(50, 189, 189); fill-opacity: 1;" class="fills" data-testid="svg-path"/><path d="M49.336 19.14a5.034 5.034 0 1 0-2.502-9.751 5.034 5.034 0 0 0 2.502 9.751Z" style="fill: rgb(50, 189, 189); fill-opacity: 1;" class="fills" data-testid="svg-path"/></g></svg>